<svg width="512" height="512" viewBox="0 0 512 512" fill="none" xmlns="http://www.w3.org/2000/svg">
<rect width="512" height="512" rx="45" fill="black"/>
<path d="M216.423 56.4785L167.01 69.717L364.608 267.311L374.257 276.989L361.073 280.522L207.3 321.68L195.25 366.558L454.939 296.977L455.284 295.711L216.423 56.4785ZM150.822 75.8341L61.752 408.137L100.038 446.422L173.761 171.307L177.296 158.097L186.945 167.773L299.744 280.598L343.805 268.811L150.822 75.8341ZM185.468 188.606L113.854 455.838L435.429 369.669L450.219 314.561L186.154 385.33L172.944 388.865L176.503 375.654L217.953 221.116L185.468 188.606L185.468 188.606Z" fill="url(#paint0_linear_10_610)"/>
<defs>
<linearGradient id="paint0_linear_10_610" x1="258.518" y1="56.4785" x2="258.518" y2="455.838" gradientUnits="userSpaceOnUse">
<stop stop-color="#571CFC"/>
<stop offset="1" stop-color="#1CFC76"/>
</linearGradient>
</defs>
</svg>
