<?xml version="1.0" standalone="no"?>
<!DOCTYPE svg PUBLIC "-//W3C//DTD SVG 20010904//EN"
 "http://www.w3.org/TR/2001/REC-SVG-20010904/DTD/svg10.dtd">
<svg version="1.0" xmlns="http://www.w3.org/2000/svg"
 width="513.000000pt" height="513.000000pt" viewBox="0 0 513.000000 513.000000"
 preserveAspectRatio="xMidYMid meet">
<metadata>
Created by potrace 1.14, written by Peter Selinger 2001-2017
</metadata>
<g transform="translate(0.000000,513.000000) scale(0.100000,-0.100000)"
fill="#000000" stroke="none">
<path d="M191 5108 c-74 -28 -142 -97 -170 -171 l-21 -58 0 -2309 c0 -2288 0
-2310 20 -2363 27 -73 79 -130 148 -164 l57 -28 2335 0 2335 0 57 28 c69 34
121 91 148 164 20 53 20 75 20 2363 l0 2309 -21 58 c-29 76 -96 143 -172 172
l-58 21 -2312 -1 -2312 0 -54 -21z m1878 -870 c232 -626 431 -1171 431 -1177
0 -3 -5 2 -11 12 -9 15 -30 17 -199 17 -176 0 -189 -1 -183 -17 3 -10 3 -15 0
-12 -6 5 -225 605 -357 977 -18 50 -35 92 -39 92 -3 0 -35 -80 -70 -178 -34
-97 -119 -332 -188 -522 l-125 -345 -199 0 c-194 0 -199 0 -192 20 7 22 223
612 439 1197 l139 378 195 0 196 0 163 -442z"/>
</g>
</svg>
